<svg width="256" height="256" viewBox="0 0 256 256" fill="none" xmlns="http://www.w3.org/2000/svg">
<rect width="256" height="256" fill="#C6A9FF"/>
<g clip-path="url(#clip0_1_6)">
<path d="M200.877 103.025C200.877 86.0069 195.597 70.2218 186.595 57.2205V57.2163C160.428 48.4331 135.538 46.5358 88.1333 86.0251C85.0205 88.6103 81.8212 91.38 78.5101 94.3371C74.7676 97.6787 70.8853 101.266 66.8621 105.104C59.7303 111.92 52.153 119.533 44.0715 128.023C44.901 130.569 45.8465 133.071 46.9301 135.496C42.7016 141.045 38.635 147.197 35 153.926C35 153.926 47.7834 175.57 94.053 181.828L107.342 202.986L107.35 202.998H131.583C131.583 198.499 127.948 194.854 123.449 194.854C122.348 194.854 121.294 195.075 120.336 195.468L112.682 183.3C114.362 183.339 118.748 183.498 120.488 183.498C121.741 183.498 122.98 183.472 124.214 183.416L136.51 202.993V202.997H160.838C160.838 198.498 157.195 194.853 152.7 194.853C151.56 194.853 150.485 195.086 149.509 195.502L140.399 181C140.468 180.973 143.326 180.204 143.386 180.188C176.625 170.311 200.877 139.496 200.877 103.022V103.025ZM152.984 71.5012C156.684 67.2172 162.163 64.5076 168.267 64.5076C179.437 64.5076 188.49 73.576 188.49 84.7584C188.49 92.9152 183.676 99.9479 176.725 103.155C176.716 103.155 176.708 103.164 176.704 103.164C176.345 103.327 175.979 103.484 175.607 103.631C173.337 104.521 170.858 105.009 168.267 105.009C157.098 105.009 148.037 95.945 148.037 84.7584C148.037 82.5144 148.408 80.3542 149.077 78.3353C149.604 76.7624 150.32 75.2706 151.197 73.8962C151.732 73.0531 152.332 72.2534 152.984 71.5012Z" fill="#1B1C18"/>
<path d="M221 82.7746C209.874 82.8249 200.875 91.8737 200.875 103.023C200.875 86.0071 195.598 70.2206 186.594 57.2192C200.743 61.6444 212.826 70.7701 221 82.7732V82.7746Z" fill="#FE5B0C"/>
<path d="M168.266 64.5064C162.161 64.5064 156.687 67.2188 152.987 71.4985C152.335 72.2507 151.732 73.0547 151.196 73.8964C151.007 74.19 150.831 74.4892 150.659 74.794C150.024 75.9125 149.492 77.0967 149.077 78.3369C148.408 80.3516 148.038 82.5173 148.038 84.7586C148.038 95.9424 157.101 105.011 168.266 105.011C170.859 105.011 173.337 104.519 175.61 103.627C175.98 103.483 176.346 103.327 176.705 103.161C176.711 103.161 176.716 103.155 176.727 103.155C177.43 102.828 178.116 102.463 178.773 102.059C184.608 98.5052 188.489 92.0877 188.489 84.7572C188.489 73.5734 179.437 64.505 168.266 64.505V64.5064ZM175.642 92.3771C175.013 92.9923 174.299 93.5292 173.529 93.971C171.981 94.8574 170.178 95.3663 168.265 95.3663C162.414 95.3663 157.67 90.6168 157.67 84.7586C157.67 82.1007 158.643 79.6763 160.257 77.8098C160.313 77.7483 160.368 77.6826 160.429 77.621C162.359 75.4847 165.152 74.1382 168.265 74.1382C174.12 74.1382 178.871 78.8933 178.871 84.7572C178.871 87.752 177.632 90.449 175.641 92.3757L175.642 92.3771Z" fill="white"/>
<path d="M178.872 84.76C178.872 87.7548 177.634 90.4518 175.642 92.3785C175.013 92.9937 174.299 93.5306 173.529 93.9724C171.981 94.8588 170.178 95.3677 168.265 95.3677C162.413 95.3677 157.67 90.6182 157.67 84.76C157.67 82.1021 158.643 79.6777 160.257 77.8112C160.313 77.7497 160.368 77.684 160.429 77.6224C162.359 75.4861 165.152 74.1396 168.265 74.1396C174.12 74.1396 178.871 78.8947 178.871 84.7586L178.872 84.76Z" fill="#1B1C18"/>
<path d="M179.166 107.137C179.166 115.525 175.3 124.494 168.941 130.861C160.347 139.465 148.315 144.536 135.203 144.536C129.219 144.536 123.485 143.451 118.194 141.463L125.847 132.245C118.646 126.26 114.058 117.236 114.058 107.137C114.058 89.139 128.634 74.5437 146.612 74.5437C147.984 74.5437 149.333 74.6262 150.661 74.7926C150.025 75.9111 149.493 77.0953 149.078 78.3355C148.41 80.3502 148.039 82.5159 148.039 84.7572C148.039 95.941 157.103 105.009 168.268 105.009C170.861 105.009 173.338 104.517 175.612 103.625C175.982 103.481 176.348 103.326 176.706 103.16C176.712 103.16 176.718 103.154 176.729 103.154C177.431 102.827 178.117 102.462 178.775 102.058C179.034 103.713 179.167 105.408 179.167 107.135L179.166 107.137Z" fill="#FE5B0C"/>
</g>
<defs>
<clipPath id="clip0_1_6">
<rect width="186" height="151" fill="white" transform="translate(35 52)"/>
</clipPath>
</defs>
</svg>
